<svg xmlns="http://www.w3.org/2000/svg" viewBox="0 0 438.54 111.21"><defs><style>.cls-1{fill:#3b82f6;}.cls-2{font-size:72px;fill:#172554;font-family:Poppins-SemiBold, Poppins;font-weight:600;letter-spacing:0.03em;}</style></defs><title>Layer 3</title><g id="Layer_2" data-name="Layer 2"><g id="Layer_1-2" data-name="Layer 1"><g id="Layer_3" data-name="Layer 3"><path class="cls-1" d="M130,27V53a27.06,27.06,0,0,1-27,27H79.83L64,107.46A7.5,7.5,0,0,1,51,100L62.51,80l6.12-10.6.72-1.25a6,6,0,0,1,.8-1,7.45,7.45,0,0,1,5.3-2.2H103a12,12,0,0,0,12-12V27a12,12,0,0,0-12-12H27A12,12,0,0,0,15,27V53A12,12,0,0,0,27,65H41.84a7.5,7.5,0,0,1,0,15H27A27,27,0,0,1,2.83,65,26.71,26.71,0,0,1,0,53V27A27,27,0,0,1,27,0h76A27,27,0,0,1,130,27Z"/><circle class="cls-1" cx="93.34" cy="39.64" r="7.91"/><circle class="cls-1" cx="38.62" cy="39.64" r="7.91"/><circle class="cls-1" cx="65.98" cy="39.64" r="7.91"/><g id="Teks"><text class="cls-2" transform="translate(137.41 68.51) scale(0.84 1)">TB Forum</text></g></g></g></g></svg>